# xmcd
#
# Track frame offsets: 
#        150
#        18067
#        47617
#        70872
#        89228
#        109861
#        126586
#        142975
#
# Disc length: 2118 seconds
#
# Revision: 0
# Processed by: cddbd v1.5.2PL0 Copyright (c) Steve Scherf et al.
# Submitted via: ExactAudioCopyFreeDBPlugin 1.0
#
DISCID=6e084408
DTITLE=Wayne Wilder - Big Love
DYEAR=1900
DGENRE=Blues
TTITLE0=Big Love
TTITLE1=Not my Soul
TTITLE2=I drift Away
TTITLE3=Farmboy Blues
TTITLE4=St. James Infirmary
TTITLE5=The Devil That
TTITLE6=Lives in The Woods
TTITLE7=Cruel Woman
EXTD=
EXTT0=
EXTT1=
EXTT2=
EXTT3=
EXTT4=
EXTT5=
EXTT6=
EXTT7=
PLAYORDER=
